<?xml version="1.0" encoding="UTF-8"?>
<!DOCTYPE svg PUBLIC "-//W3C//DTD SVG 1.1//EN" "http://www.w3.org/Graphics/SVG/1.1/DTD/svg11.dtd">
<svg xmlns="http://www.w3.org/2000/svg" version="1.1" width="204px" height="192px" style="shape-rendering:geometricPrecision; text-rendering:geometricPrecision; image-rendering:optimizeQuality; fill-rule:evenodd; clip-rule:evenodd" xmlns:xlink="http://www.w3.org/1999/xlink">
<g><path style="opacity:1" fill="#fefefe" d="M -0.5,-0.5 C 30.1667,-0.5 60.8333,-0.5 91.5,-0.5C 85.6913,0.94487 79.6913,2.11154 73.5,3C 68.4334,4.51192 63.7667,6.67859 59.5,9.5C 52.9735,11.9243 47.3068,15.5909 42.5,20.5C 38.5644,22.7657 35.2311,25.7657 32.5,29.5C 28.3717,32.2901 25.3717,35.9568 23.5,40.5C 21.0499,42.6291 19.3833,45.2957 18.5,48.5C 13.9452,53.9537 11.2785,60.287 10.5,67.5C 8.45997,71.1323 7.2933,75.1323 7,79.5C 4.85456,97.0173 6.85456,114.017 13,130.5C 14.3439,133.865 16.1773,136.865 18.5,139.5C 21.63,146.964 26.2967,153.297 32.5,158.5C 32.8333,160.833 34.1667,162.167 36.5,162.5C 38.9179,166.245 42.2512,168.912 46.5,170.5C 51.5674,175.37 57.5674,178.704 64.5,180.5C 70.0082,183.728 76.0082,185.894 82.5,187C 104.631,190.656 125.631,187.323 145.5,177C 149.3,175.021 152.634,172.521 155.5,169.5C 163.833,164.5 170.5,157.833 175.5,149.5C 179.417,146.012 182.083,141.679 183.5,136.5C 184.338,136.158 184.672,135.492 184.5,134.5C 188.509,128.512 191.009,121.845 192,114.5C 195.497,98.7618 195.163,83.0952 191,67.5C 189.481,62.3985 187.314,57.7319 184.5,53.5C 182.754,47.6623 179.754,42.6623 175.5,38.5C 171.548,31.5471 166.214,25.8805 159.5,21.5C 158.738,19.7376 157.404,18.7376 155.5,18.5C 154.198,16.1782 152.198,14.8449 149.5,14.5C 145.598,11.3823 141.265,9.04893 136.5,7.5C 134.402,6.06504 132.069,4.89837 129.5,4C 122.334,2.62026 115.334,1.12026 108.5,-0.5C 140.167,-0.5 171.833,-0.5 203.5,-0.5C 203.5,63.5 203.5,127.5 203.5,191.5C 135.5,191.5 67.5,191.5 -0.5,191.5C -0.5,127.5 -0.5,63.5 -0.5,-0.5 Z"/></g>
<g><path style="opacity:1" fill="#989dac" d="M 91.5,-0.5 C 97.1667,-0.5 102.833,-0.5 108.5,-0.5C 115.334,1.12026 122.334,2.62026 129.5,4C 132.069,4.89837 134.402,6.06504 136.5,7.5C 132.767,7.13 129.101,6.46333 125.5,5.5C 121.756,3.86755 117.756,2.70089 113.5,2C 104.5,1.33333 95.5,1.33333 86.5,2C 77.299,3.93699 68.299,6.43699 59.5,9.5C 63.7667,6.67859 68.4334,4.51192 73.5,3C 79.6913,2.11154 85.6913,0.94487 91.5,-0.5 Z"/></g>
<g><path style="opacity:1" fill="#eeeff2" d="M 125.5,5.5 C 124.833,5.5 124.5,5.83333 124.5,6.5C 121.946,5.61197 119.279,5.27863 116.5,5.5C 115.911,11.4247 114.245,16.9247 111.5,22C 115.688,23.6307 120.021,24.4641 124.5,24.5C 124.263,23.209 124.596,22.209 125.5,21.5C 125.5,23.5 126.5,24.5 128.5,24.5C 128.082,25.2216 127.416,25.7216 126.5,26C 128.421,26.3603 130.088,27.1936 131.5,28.5C 131.155,26.6177 131.655,24.6177 133,22.5C 133.816,21.1772 134.983,20.5106 136.5,20.5C 135.779,23.8175 135.612,27.1508 136,30.5C 137.292,31.7911 138.458,31.7911 139.5,30.5C 140.167,31.1667 140.833,31.8333 141.5,32.5C 141.833,33.1667 142.167,33.8333 142.5,34.5C 141.325,34.281 140.325,34.6143 139.5,35.5C 141.188,36.5213 142.521,37.8546 143.5,39.5C 139.561,37.5538 135.894,35.2205 132.5,32.5C 131.089,30.461 129.089,29.461 126.5,29.5C 118.823,25.2679 110.49,23.2679 101.5,23.5C 90.6888,22.9451 80.6888,25.2785 71.5,30.5C 67.7324,33.2254 63.7324,35.7254 59.5,38C 55.9165,41.428 52.2498,44.5947 48.5,47.5C 45.1285,49.9361 42.4619,52.9361 40.5,56.5C 40.5,55.1667 39.8333,54.5 38.5,54.5C 36.5,53.1667 34.5,51.8333 32.5,50.5C 32.8807,49.0689 33.8807,48.2355 35.5,48C 34.0186,47.0197 32.6853,45.853 31.5,44.5C 30.4104,45.3914 30.4104,46.3914 31.5,47.5C 31.0431,48.2975 30.3764,48.6309 29.5,48.5C 28.1667,47.8333 26.8333,47.1667 25.5,46.5C 25.8333,45.1667 26.1667,43.8333 26.5,42.5C 24.4017,43.9143 23.4017,43.2476 23.5,40.5C 26.8715,37.1294 29.8715,33.4627 32.5,29.5C 36.4356,27.2343 39.7689,24.2343 42.5,20.5C 48.3451,17.0794 54.0118,13.4128 59.5,9.5C 68.299,6.43699 77.299,3.93699 86.5,2C 95.5,1.33333 104.5,1.33333 113.5,2C 117.756,2.70089 121.756,3.86755 125.5,5.5 Z"/></g>
<g><path style="opacity:1" fill="#737d94" d="M 106.5,4.5 C 107.601,3.40168 108.934,3.23502 110.5,4C 108.963,6.2796 107.797,8.7796 107,11.5C 107.412,9.00478 107.245,6.67145 106.5,4.5 Z"/></g>
<g><path style="opacity:1" fill="#1e355e" d="M 79.5,14.5 C 80.5116,15.8717 81.5116,17.205 82.5,18.5C 82.8146,20.2259 82.9813,21.8925 83,23.5C 79.6309,19.9626 76.1309,16.6293 72.5,13.5C 72.0269,12.0937 71.0269,11.427 69.5,11.5C 68.7375,10.7321 67.7375,10.2321 66.5,10C 68,9.5 69.5,9 71,8.5C 74.2569,9.92732 77.0903,11.9273 79.5,14.5 Z"/></g>
<g><path style="opacity:1" fill="#1d365f" d="M 96.5,4.5 C 98.2884,3.37753 100.288,3.21086 102.5,4C 102.012,8.23491 103.012,12.2349 105.5,16C 104.804,17.8928 103.97,19.7262 103,21.5C 101.682,15.3593 99.5151,9.6926 96.5,4.5 Z"/></g>
<g><path style="opacity:1" fill="#475576" d="M 124.5,6.5 C 127.79,7.65616 128.29,9.65616 126,12.5C 126.209,8.54082 124.375,6.87416 120.5,7.5C 120.567,9.40078 120.233,11.2341 119.5,13C 120.01,14.8261 120.844,14.9928 122,13.5C 122.798,15.2588 122.631,16.9255 121.5,18.5C 120.833,17.5 120.167,16.5 119.5,15.5C 118.056,17.6079 117.39,19.9412 117.5,22.5C 120.652,22.9529 123.152,21.9529 125,19.5C 125.464,20.0944 125.631,20.7611 125.5,21.5C 124.596,22.209 124.263,23.209 124.5,24.5C 120.021,24.4641 115.688,23.6307 111.5,22C 114.245,16.9247 115.911,11.4247 116.5,5.5C 119.279,5.27863 121.946,5.61197 124.5,6.5 Z"/></g>
<g><path style="opacity:1" fill="#8c91a2" d="M 59.5,9.5 C 54.0118,13.4128 48.3451,17.0794 42.5,20.5C 47.3068,15.5909 52.9735,11.9243 59.5,9.5 Z"/></g>
<g><path style="opacity:1" fill="#778197" d="M 65.5,29.5 C 66.4636,25.0386 65.2969,21.0386 62,17.5C 61.3333,16.5 61.3333,15.5 62,14.5C 64.6495,18.132 66.4829,22.132 67.5,26.5C 67.3601,28.0296 66.6935,29.0296 65.5,29.5 Z"/></g>
<g><path style="opacity:1" fill="#8990a2" d="M 82.5,18.5 C 81.5116,17.205 80.5116,15.8717 79.5,14.5C 79.9382,14.5654 80.2716,14.3988 80.5,14C 79.3313,11.9935 78.6646,9.82682 78.5,7.5C 74.8284,6.95526 75.1617,6.62192 79.5,6.5C 80.5,10.5 81.5,14.5 82.5,18.5 Z"/></g>
<g><path style="opacity:1" fill="#35476c" d="M 85.5,5.5 C 86.9187,4.54885 88.5853,4.21552 90.5,4.5C 91.1245,8.99381 91.7912,13.4938 92.5,18C 92.7549,19.3261 93.4216,20.3261 94.5,21C 91.9234,22.2504 89.2567,22.5837 86.5,22C 87.6241,21.1612 88.2908,19.9945 88.5,18.5C 87.8905,14.5144 87.3905,10.5144 87,6.5C 86.6174,5.94404 86.1174,5.61071 85.5,5.5 Z"/></g>
<g><path style="opacity:1" fill="#8b92a4" d="M 69.5,11.5 C 71.0269,11.427 72.0269,12.0937 72.5,13.5C 71.9033,13.7352 71.5699,14.2352 71.5,15C 72.2557,17.8561 73.089,20.6894 74,23.5C 77.2483,24.6794 77.0816,25.6794 73.5,26.5C 71.7552,21.6007 70.4219,16.6007 69.5,11.5 Z"/></g>
<g><path style="opacity:1" fill="#83899c" d="M 149.5,14.5 C 152.198,14.8449 154.198,16.1782 155.5,18.5C 153.147,17.6597 151.147,16.3264 149.5,14.5 Z"/></g>
<g><path style="opacity:1" fill="#a0a4b2" d="M 126.5,29.5 C 107.98,23.9159 89.6471,24.2492 71.5,30.5C 80.6888,25.2785 90.6888,22.9451 101.5,23.5C 110.49,23.2679 118.823,25.2679 126.5,29.5 Z"/></g>
<g><path style="opacity:1" fill="#273a63" d="M 139.5,30.5 C 138.458,31.7911 137.292,31.7911 136,30.5C 135.612,27.1508 135.779,23.8175 136.5,20.5C 134.983,20.5106 133.816,21.1772 133,22.5C 131.655,24.6177 131.155,26.6177 131.5,28.5C 130.088,27.1936 128.421,26.3603 126.5,26C 127.416,25.7216 128.082,25.2216 128.5,24.5C 129.959,20.2478 131.959,16.2478 134.5,12.5C 133.674,11.549 133.508,10.549 134,9.5C 136.421,10.9606 138.921,12.2939 141.5,13.5C 146.003,18.1569 145.003,20.9903 138.5,22C 139.256,24.9779 139.589,27.8112 139.5,30.5 Z"/></g>
<g><path style="opacity:1" fill="#f6f5f6" d="M 124.5,6.5 C 124.5,5.83333 124.833,5.5 125.5,5.5C 129.101,6.46333 132.767,7.13 136.5,7.5C 141.265,9.04893 145.598,11.3823 149.5,14.5C 151.147,16.3264 153.147,17.6597 155.5,18.5C 157.404,18.7376 158.738,19.7376 159.5,21.5C 159.369,22.2389 159.536,22.9056 160,23.5C 165.697,28.0311 170.863,33.0311 175.5,38.5C 178.11,43.7671 181.11,48.7671 184.5,53.5C 195.142,80.4822 195.142,107.482 184.5,134.5C 184.672,135.492 184.338,136.158 183.5,136.5C 180.586,140.658 177.919,144.991 175.5,149.5C 169.167,156.5 162.5,163.167 155.5,169.5C 127.046,187.903 96.7129,191.57 64.5,180.5C 58.5078,177.17 52.5078,173.837 46.5,170.5C 43.4607,167.46 40.1274,164.794 36.5,162.5C 34.1667,162.167 32.8333,160.833 32.5,158.5C 27.8262,152.161 23.1596,145.828 18.5,139.5C 13.7045,128.945 10.2045,117.945 8,106.5C 6.87867,93.3545 7.71201,80.3545 10.5,67.5C 13.4028,61.3498 16.0695,55.0165 18.5,48.5C 19.4584,48.0472 20.2917,47.3805 21,46.5C 20.7374,47.9506 20.9041,49.2839 21.5,50.5C 22.4168,49.8728 23.4168,49.5394 24.5,49.5C 28.8344,51.9103 32.6677,54.9103 36,58.5C 37.0946,57.3066 37.928,55.9733 38.5,54.5C 39.8333,54.5 40.5,55.1667 40.5,56.5C 40.3932,58.3786 40.8932,58.7119 42,57.5C 44.0222,53.9965 46.1888,50.6632 48.5,47.5C 52.2498,44.5947 55.9165,41.428 59.5,38C 63.7324,35.7254 67.7324,33.2254 71.5,30.5C 89.6471,24.2492 107.98,23.9159 126.5,29.5C 128.181,31.0075 130.181,32.0075 132.5,32.5C 135.894,35.2205 139.561,37.5538 143.5,39.5C 142.521,37.8546 141.188,36.5213 139.5,35.5C 140.325,34.6143 141.325,34.281 142.5,34.5C 147.621,39.0933 151.288,37.9266 153.5,31C 151.727,28.4101 150.727,25.5767 150.5,22.5C 152.292,22.366 153.958,22.6993 155.5,23.5C 153.955,19.9986 151.788,19.6653 149,22.5C 147.104,26.2178 147.271,29.8844 149.5,33.5C 148.365,37.0387 146.532,37.372 144,34.5C 144.046,32.6874 143.88,31.0207 143.5,29.5C 142.575,30.3569 141.908,31.3569 141.5,32.5C 140.833,31.8333 140.167,31.1667 139.5,30.5C 139.589,27.8112 139.256,24.9779 138.5,22C 145.003,20.9903 146.003,18.1569 141.5,13.5C 138.921,12.2939 136.421,10.9606 134,9.5C 133.508,10.549 133.674,11.549 134.5,12.5C 131.959,16.2478 129.959,20.2478 128.5,24.5C 126.5,24.5 125.5,23.5 125.5,21.5C 125.631,20.7611 125.464,20.0944 125,19.5C 123.152,21.9529 120.652,22.9529 117.5,22.5C 117.39,19.9412 118.056,17.6079 119.5,15.5C 120.167,16.5 120.833,17.5 121.5,18.5C 122.631,16.9255 122.798,15.2588 122,13.5C 120.844,14.9928 120.01,14.8261 119.5,13C 120.233,11.2341 120.567,9.40078 120.5,7.5C 124.375,6.87416 126.209,8.54082 126,12.5C 128.29,9.65616 127.79,7.65616 124.5,6.5 Z"/></g>
<g><path style="opacity:1" fill="#20315d" d="M 155.5,23.5 C 157.852,24.5426 158.019,25.8759 156,27.5C 155.51,26.2068 155.343,24.8734 155.5,23.5 Z"/></g>
<g><path style="opacity:1" fill="#ebecef" d="M 136.5,20.5 C 135.099,17.6906 135.766,15.3572 138.5,13.5C 141.432,16.7679 140.765,19.1013 136.5,20.5 Z"/></g>
<g><path style="opacity:1" fill="#39486d" d="M 155.5,23.5 C 153.958,22.6993 152.292,22.366 150.5,22.5C 150.727,25.5767 151.727,28.4101 153.5,31C 151.288,37.9266 147.621,39.0933 142.5,34.5C 142.167,33.8333 141.833,33.1667 141.5,32.5C 141.908,31.3569 142.575,30.3569 143.5,29.5C 143.88,31.0207 144.046,32.6874 144,34.5C 146.532,37.372 148.365,37.0387 149.5,33.5C 147.271,29.8844 147.104,26.2178 149,22.5C 151.788,19.6653 153.955,19.9986 155.5,23.5 Z"/></g>
<g><path style="opacity:1" fill="#253961" d="M 65.5,29.5 C 65.3893,30.1174 65.056,30.6174 64.5,31C 62.5,31.6667 60.5,31.6667 58.5,31C 56.2879,28.0788 54.4545,24.9121 53,21.5C 52.0975,20.2986 50.9308,19.4652 49.5,19C 51.2487,17.7085 53.082,16.5418 55,15.5C 55.6172,16.4491 55.4506,17.2825 54.5,18C 56.3333,21.1667 58.1667,24.3333 60,27.5C 61.4443,29.1554 63.2776,29.822 65.5,29.5 Z"/></g>
<g><path style="opacity:1" fill="#9ba0b0" d="M 42.5,20.5 C 39.7689,24.2343 36.4356,27.2343 32.5,29.5C 35.2311,25.7657 38.5644,22.7657 42.5,20.5 Z"/></g>
<g><path style="opacity:1" fill="#8b8fa0" d="M 159.5,21.5 C 166.214,25.8805 171.548,31.5471 175.5,38.5C 170.863,33.0311 165.697,28.0311 160,23.5C 159.536,22.9056 159.369,22.2389 159.5,21.5 Z"/></g>
<g><path style="opacity:1" fill="#6f768c" d="M 126.5,29.5 C 129.089,29.461 131.089,30.461 132.5,32.5C 130.181,32.0075 128.181,31.0075 126.5,29.5 Z"/></g>
<g><path style="opacity:1" fill="#70768f" d="M 38.5,35.5 C 37.5,36.1667 36.5,36.8333 35.5,37.5C 32.2145,33.3271 33.2145,30.6604 38.5,29.5C 39.737,29.5565 40.737,30.0565 41.5,31C 39.236,31.2362 37.0693,31.7362 35,32.5C 34.6671,34.9342 35.8338,35.9342 38.5,35.5 Z"/></g>
<g><path style="opacity:1" fill="#868c9e" d="M 32.5,29.5 C 29.8715,33.4627 26.8715,37.1294 23.5,40.5C 25.3717,35.9568 28.3717,32.2901 32.5,29.5 Z"/></g>
<g><path style="opacity:1" fill="#1c345e" d="M 48.5,42.5 C 48.767,40.0289 47.767,38.3622 45.5,37.5C 42.0278,39.8963 38.6945,39.8963 35.5,37.5C 36.5,36.8333 37.5,36.1667 38.5,35.5C 46.0231,32.7372 49.3565,35.0706 48.5,42.5 Z"/></g>
<g><path style="opacity:1" fill="#2d3f66" d="M 161.5,29.5 C 161.897,28.475 162.563,28.3083 163.5,29C 164.676,30.6743 166.01,32.1743 167.5,33.5C 166.738,33.9106 165.738,34.0773 164.5,34C 160.947,37.0968 157.614,40.4302 154.5,44C 155.451,44.7175 155.617,45.5509 155,46.5C 153.5,44.3333 151.667,42.5 149.5,41C 154.467,39.0519 158.633,35.8853 162,31.5C 162.692,30.5632 162.525,29.8966 161.5,29.5 Z"/></g>
<g><path style="opacity:1" fill="#db9f39" d="M 97.5,34.5 C 98.9348,35.7898 99.9348,37.4565 100.5,39.5C 101.5,38.8333 102.5,38.1667 103.5,37.5C 104.274,41.714 106.107,45.3807 109,48.5C 109.498,51.4816 109.665,54.4816 109.5,57.5C 106.482,57.6646 103.482,57.498 100.5,57C 95.1003,50.1146 94.1003,42.6146 97.5,34.5 Z"/></g>
<g><path style="opacity:1" fill="#202f5b" d="M 26.5,42.5 C 27.1935,39.1616 28.8601,38.6616 31.5,41C 29.7525,41.3519 28.0858,41.8519 26.5,42.5 Z"/></g>
<g><path style="opacity:1" fill="#8f94a5" d="M 175.5,38.5 C 179.754,42.6623 182.754,47.6623 184.5,53.5C 181.11,48.7671 178.11,43.7671 175.5,38.5 Z"/></g>
<g><path style="opacity:1" fill="#b0b5c1" d="M 23.5,40.5 C 23.4017,43.2476 24.4017,43.9143 26.5,42.5C 26.1667,43.8333 25.8333,45.1667 25.5,46.5C 21.9952,46.6941 21.6618,47.6941 24.5,49.5C 23.4168,49.5394 22.4168,49.8728 21.5,50.5C 20.9041,49.2839 20.7374,47.9506 21,46.5C 20.2917,47.3805 19.4584,48.0472 18.5,48.5C 19.3833,45.2957 21.0499,42.6291 23.5,40.5 Z"/></g>
<g><path style="opacity:1" fill="#505b7b" d="M 48.5,42.5 C 46.4491,46.6485 44.1158,46.9819 41.5,43.5C 43.6655,43.7201 45.9989,43.3868 48.5,42.5 Z"/></g>
<g><path style="opacity:1" fill="#82879a" d="M 143.5,39.5 C 147.402,41.8926 150.902,44.8926 154,48.5C 154.667,49.1667 154.667,49.8333 154,50.5C 150.296,46.9643 146.796,43.2976 143.5,39.5 Z"/></g>
<g><path style="opacity:1" fill="#263b63" d="M 175.5,44.5 C 170.304,46.8523 165.47,49.8523 161,53.5C 156.236,50.0735 156.403,48.5735 161.5,49C 165.431,46.8682 168.764,44.0348 171.5,40.5C 170.271,39.7189 168.938,39.2189 167.5,39C 168.108,38.1301 168.941,37.6301 170,37.5C 172.354,39.3616 174.187,41.6949 175.5,44.5 Z"/></g>
<g><path style="opacity:1" fill="#1f365f" d="M 25.5,46.5 C 26.8333,47.1667 28.1667,47.8333 29.5,48.5C 30.2905,49.4013 31.2905,50.0679 32.5,50.5C 34.5,51.8333 36.5,53.1667 38.5,54.5C 37.928,55.9733 37.0946,57.3066 36,58.5C 32.6677,54.9103 28.8344,51.9103 24.5,49.5C 21.6618,47.6941 21.9952,46.6941 25.5,46.5 Z"/></g>
<g><path style="opacity:1" fill="#69728c" d="M 32.5,50.5 C 31.2905,50.0679 30.2905,49.4013 29.5,48.5C 30.3764,48.6309 31.0431,48.2975 31.5,47.5C 30.4104,46.3914 30.4104,45.3914 31.5,44.5C 32.6853,45.853 34.0186,47.0197 35.5,48C 33.8807,48.2355 32.8807,49.0689 32.5,50.5 Z"/></g>
<g><path style="opacity:1" fill="#333e66" d="M 38.5,45.5 C 42.0118,46.6363 42.8451,48.6363 41,51.5C 40.3448,49.3716 39.5114,47.3716 38.5,45.5 Z"/></g>
<g><path style="opacity:1" fill="#6a6e88" d="M 175.5,44.5 C 176.478,44.811 177.145,45.4777 177.5,46.5C 176.418,48.7837 174.752,49.9504 172.5,50C 174.607,48.7365 175.607,46.9032 175.5,44.5 Z"/></g>
<g><path style="opacity:1" fill="#db9f3a" d="M 92.5,42.5 C 93.5423,47.3039 95.209,51.9706 97.5,56.5C 95.9547,57.4519 94.288,57.7852 92.5,57.5C 91.1667,52.5 91.1667,47.5 92.5,42.5 Z"/></g>
<g><path style="opacity:1" fill="#8f94a4" d="M 48.5,47.5 C 46.1888,50.6632 44.0222,53.9965 42,57.5C 40.8932,58.7119 40.3932,58.3786 40.5,56.5C 42.4619,52.9361 45.1285,49.9361 48.5,47.5 Z"/></g>
<g><path style="opacity:1" fill="#842f2e" d="M 98.5,74.5 C 98.8294,89.676 98.4961,104.676 97.5,119.5C 90.0831,110.933 80.9165,104.933 70,101.5C 69.1671,85.4896 69.3338,69.4896 70.5,53.5C 82.1305,57.6268 91.4638,64.6268 98.5,74.5 Z"/></g>
<g><path style="opacity:1" fill="#832d2d" d="M 128.5,53.5 C 129.831,61.1376 130.498,69.1376 130.5,77.5C 130.333,85.5 130.167,93.5 130,101.5C 118.746,105.101 109.413,111.435 102,120.5C 101.333,105.167 101.333,89.8333 102,74.5C 109.268,65.3847 118.101,58.3847 128.5,53.5 Z"/></g>
<g><path style="opacity:1" fill="#ae8081" d="M 66.5,56.5 C 65.5036,72.6581 65.1702,88.9915 65.5,105.5C 64.1731,88.9952 64.1731,72.3286 65.5,55.5C 66.1067,55.6236 66.44,55.9569 66.5,56.5 Z"/></g>
<g><path style="opacity:1" fill="#9195a5" d="M 18.5,48.5 C 16.0695,55.0165 13.4028,61.3498 10.5,67.5C 11.2785,60.287 13.9452,53.9537 18.5,48.5 Z"/></g>
<g><path style="opacity:1" fill="#2c4066" d="M 179.5,51.5 C 181.043,52.7358 182.043,54.4024 182.5,56.5C 180.35,58.1491 178.35,59.9824 176.5,62C 179.379,62.9574 181.879,62.4574 184,60.5C 184.956,61.5786 185.789,62.7453 186.5,64C 180.204,62.7087 174.204,63.542 168.5,66.5C 166.861,65.084 166.027,63.4174 166,61.5C 168.647,62.4637 171.147,61.9637 173.5,60C 176.564,57.7928 178.564,54.9594 179.5,51.5 Z"/></g>
<g><path style="opacity:1" fill="#263b63" d="M 18.5,54.5 C 19.2674,55.172 19.9341,56.0053 20.5,57C 24.7031,58.2093 28.7031,59.876 32.5,62C 33.885,63.9645 33.7184,65.7979 32,67.5C 31.6258,66.5838 31.1258,65.7504 30.5,65C 26.1373,63.0517 21.8039,61.2184 17.5,59.5C 17.366,57.7085 17.6993,56.0418 18.5,54.5 Z"/></g>
<g><path style="opacity:1" fill="#232a4c" d="M 90.5,60.5 C 96.6446,59.5098 102.978,59.1765 109.5,59.5C 109.5,60.5 109.5,61.5 109.5,62.5C 102.879,63.0599 96.5454,62.3932 90.5,60.5 Z"/></g>
<g><path style="opacity:1" fill="#8f94a4" d="M 184.5,53.5 C 187.314,57.7319 189.481,62.3985 191,67.5C 195.163,83.0952 195.497,98.7618 192,114.5C 191.009,121.845 188.509,128.512 184.5,134.5C 195.142,107.482 195.142,80.4822 184.5,53.5 Z"/></g>
<g><path style="opacity:1" fill="#2f3659" d="M 95.5,64.5 C 98.8984,64.1796 102.232,64.513 105.5,65.5C 104.097,69.2545 101.43,70.4211 97.5,69C 95.9632,67.8904 95.2965,66.3904 95.5,64.5 Z"/></g>
<g><path style="opacity:1" fill="#842d2b" d="M 62.5,60.5 C 62.5,76.1667 62.5,91.8333 62.5,107.5C 70.0921,108.565 77.4254,110.565 84.5,113.5C 86.6125,114.44 88.6125,115.606 90.5,117C 91.6956,117.654 91.6956,118.154 90.5,118.5C 80.3501,113.87 69.6835,111.536 58.5,111.5C 58.5,94.5 58.5,77.5 58.5,60.5C 59.8333,60.5 61.1667,60.5 62.5,60.5 Z"/></g>
<g><path style="opacity:1" fill="#7f8598" d="M 167.5,76.5 C 165.764,73.7855 164.93,70.7855 165,67.5C 166.908,70.2065 167.741,73.2065 167.5,76.5 Z"/></g>
<g><path style="opacity:1" fill="#a77171" d="M 98.5,74.5 C 99.6613,89.9946 99.828,105.661 99,121.5C 98.2828,120.956 97.7828,120.289 97.5,119.5C 98.4961,104.676 98.8294,89.676 98.5,74.5 Z"/></g>
<g><path style="opacity:1" fill="#3b3f5f" d="M 152.5,78.5 C 156.317,79.5335 157.317,81.8668 155.5,85.5C 153.151,83.7962 152.151,81.4629 152.5,78.5 Z"/></g>
<g><path style="opacity:1" fill="#293256" d="M 47.5,82.5 C 45.334,85.0401 44.334,84.3734 44.5,80.5C 47.0835,76.5566 48.0835,77.2233 47.5,82.5 Z"/></g>
<g><path style="opacity:1" fill="#802623" d="M 133.5,56.5 C 135.485,72.4658 136.152,88.7991 135.5,105.5C 129.165,106.12 123.165,107.62 117.5,110C 122.474,106.953 127.808,104.786 133.5,103.5C 133.5,87.8333 133.5,72.1667 133.5,56.5 Z"/></g>
<g><path style="opacity:1" fill="#7b1917" d="M 66.5,56.5 C 67.1667,72.0052 67.8333,87.6719 68.5,103.5C 71.6741,104.692 74.6741,106.025 77.5,107.5C 73.8026,106.992 70.1359,106.326 66.5,105.5C 66.1667,105.5 65.8333,105.5 65.5,105.5C 65.1702,88.9915 65.5036,72.6581 66.5,56.5 Z"/></g>
<g><path style="opacity:1" fill="#c2a1a1" d="M 138.5,60.5 C 139.568,59.5655 140.901,59.2322 142.5,59.5C 142.667,76.8365 142.5,94.1699 142,111.5C 138.606,112.456 135.106,112.789 131.5,112.5C 134.627,111.419 137.96,110.753 141.5,110.5C 141.5,93.8333 141.5,77.1667 141.5,60.5C 140.5,60.5 139.5,60.5 138.5,60.5 Z"/></g>
<g><path style="opacity:1" fill="#282e53" d="M 49.5,85.5 C 49.1075,87.2838 48.4408,88.9505 47.5,90.5C 45.2395,91.8856 44.4062,91.2189 45,88.5C 46.129,86.8588 47.629,85.8588 49.5,85.5 Z"/></g>
<g><path style="opacity:1" fill="#2d3458" d="M 159.5,82.5 C 160.932,85.2672 160.599,87.9338 158.5,90.5C 157.267,87.6584 157.6,84.9918 159.5,82.5 Z"/></g>
<g><path style="opacity:1" fill="#2b3157" d="M 42.5,85.5 C 42.6621,87.5273 42.4955,89.5273 42,91.5C 41.1482,90.4293 40.3149,89.4293 39.5,88.5C 39.2148,86.712 39.5481,85.0453 40.5,83.5C 41.5223,83.8555 42.189,84.5222 42.5,85.5 Z"/></g>
<g><path style="opacity:1" fill="#22274e" d="M 151.5,85.5 C 153.982,86.5494 155.649,88.3827 156.5,91C 153.365,90.6924 151.698,88.8591 151.5,85.5 Z"/></g>
<g><path style="opacity:1" fill="#a6abb8" d="M 167.5,76.5 C 169.011,78.4758 169.844,80.8091 170,83.5C 171.745,96.3377 170.078,108.671 165,120.5C 165.965,115.575 166.965,110.575 168,105.5C 168.693,95.8109 168.527,86.1442 167.5,76.5 Z"/></g>
<g><path style="opacity:1" fill="#dcdee3" d="M 44.5,80.5 C 44.334,84.3734 45.334,85.0401 47.5,82.5C 47.8807,83.9311 48.8807,84.7645 50.5,85C 50.2716,85.3988 49.9382,85.5654 49.5,85.5C 47.629,85.8588 46.129,86.8588 45,88.5C 44.4062,91.2189 45.2395,91.8856 47.5,90.5C 47.8333,91.1667 48.1667,91.8333 48.5,92.5C 45.0501,93.7366 44.0501,96.07 45.5,99.5C 46.1818,98.7573 46.8485,98.0906 47.5,97.5C 48.1667,98.1667 48.8333,98.8333 49.5,99.5C 47.4136,100.148 46.4136,101.648 46.5,104C 46.6824,106.578 47.6824,107.078 49.5,105.5C 49.8333,105.5 50.1667,105.5 50.5,105.5C 48.7775,108.918 49.4442,111.584 52.5,113.5C 51.7095,114.401 50.7095,115.068 49.5,115.5C 48.3037,111.742 45.9704,110.409 42.5,111.5C 41.9033,111.265 41.5699,110.765 41.5,110C 42.0556,108.989 42.7222,108.156 43.5,107.5C 44.6026,104.826 43.6026,102.826 40.5,101.5C 39.8933,101.624 39.56,101.957 39.5,102.5C 38.9569,102.44 38.6236,102.107 38.5,101.5C 39.6119,100.735 40.2786,99.7348 40.5,98.5C 41.1174,98.6107 41.6174,98.944 42,99.5C 42.7069,96.2388 41.7069,93.5721 39,91.5C 38.5357,92.0944 38.369,92.7611 38.5,93.5C 37.9033,93.2648 37.5699,92.7648 37.5,92C 38.4295,90.9231 39.0962,89.7564 39.5,88.5C 40.3149,89.4293 41.1482,90.4293 42,91.5C 42.4955,89.5273 42.6621,87.5273 42.5,85.5C 43.1667,83.8333 43.8333,82.1667 44.5,80.5 Z"/></g>
<g><path style="opacity:1" fill="#232a4e" d="M 40.5,98.5 C 39.5592,96.9505 38.8925,95.2838 38.5,93.5C 38.369,92.7611 38.5357,92.0944 39,91.5C 41.7069,93.5721 42.7069,96.2388 42,99.5C 41.6174,98.944 41.1174,98.6107 40.5,98.5 Z"/></g>
<g><path style="opacity:1" fill="#2c3156" d="M 48.5,92.5 C 48.3713,94.2161 48.038,95.8828 47.5,97.5C 46.8485,98.0906 46.1818,98.7573 45.5,99.5C 44.0501,96.07 45.0501,93.7366 48.5,92.5 Z"/></g>
<g><path style="opacity:1" fill="#1d234b" d="M 160.5,92.5 C 161.514,95.2036 160.681,97.5369 158,99.5C 157.333,98.1667 157.333,96.8333 158,95.5C 159.045,94.6266 159.878,93.6266 160.5,92.5 Z"/></g>
<g><path style="opacity:1" fill="#934740" d="M 179.5,93.5 C 181.794,92.7879 183.794,93.6213 185.5,96C 184.069,96.4652 182.903,97.2986 182,98.5C 181.5,97.3333 180.667,96.5 179.5,96C 180.774,95.0228 180.774,94.1894 179.5,93.5 Z"/></g>
<g><path style="opacity:1" fill="#904744" d="M 15.5,93.5 C 16.7618,93.0934 18.0951,92.76 19.5,92.5C 21.0822,96.7704 19.4155,97.9371 14.5,96C 15.999,95.1618 16.3324,94.3285 15.5,93.5 Z"/></g>
<g><path style="opacity:1" fill="#242a4e" d="M 152.5,92.5 C 155.005,94.1859 155.838,96.5193 155,99.5C 152.863,97.6789 152.03,95.3456 152.5,92.5 Z"/></g>
<g><path style="opacity:1" fill="#2e3455" d="M 49.5,99.5 C 49.5,101.5 49.5,103.5 49.5,105.5C 47.6824,107.078 46.6824,106.578 46.5,104C 46.4136,101.648 47.4136,100.148 49.5,99.5 Z"/></g>
<g><path style="opacity:1" fill="#0d1437" d="M 152.5,99.5 C 153.219,101.764 153.552,104.097 153.5,106.5C 153.552,104.097 153.219,101.764 152.5,99.5 Z"/></g>
<g><path style="opacity:1" fill="#21274e" d="M 43.5,107.5 C 41.4689,106.461 40.1355,104.795 39.5,102.5C 39.56,101.957 39.8933,101.624 40.5,101.5C 43.6026,102.826 44.6026,104.826 43.5,107.5 Z"/></g>
<g><path style="opacity:1" fill="#242950" d="M 158.5,101.5 C 159.376,101.369 160.043,101.702 160.5,102.5C 159.876,104.754 158.543,106.421 156.5,107.5C 156.167,107 155.833,106.5 155.5,106C 156.315,104.357 157.315,102.857 158.5,101.5 Z"/></g>
<g><path style="opacity:1" fill="#7c8195" d="M 10.5,67.5 C 7.71201,80.3545 6.87867,93.3545 8,106.5C 10.2045,117.945 13.7045,128.945 18.5,139.5C 16.1773,136.865 14.3439,133.865 13,130.5C 6.85456,114.017 4.85456,97.0173 7,79.5C 7.2933,75.1323 8.45997,71.1323 10.5,67.5 Z"/></g>
<g><path style="opacity:1" fill="#e5d5d5" d="M 62.5,60.5 C 63.4962,75.6576 63.8295,90.9909 63.5,106.5C 64.791,106.737 65.791,106.404 66.5,105.5C 70.1359,106.326 73.8026,106.992 77.5,107.5C 80.354,107.924 83.0207,108.924 85.5,110.5C 86.521,111.002 86.6877,111.668 86,112.5C 83.8215,111.16 83.3215,111.493 84.5,113.5C 77.4254,110.565 70.0921,108.565 62.5,107.5C 62.5,91.8333 62.5,76.1667 62.5,60.5 Z"/></g>
<g><path style="opacity:1" fill="#9196a6" d="M 40.5,129.5 C 35.1747,122.834 32.008,115.167 31,106.5C 28.8816,91.5244 30.8816,77.1911 37,63.5C 34.2384,73.2369 32.405,83.2369 31.5,93.5C 31.9656,106.169 34.9656,118.169 40.5,129.5 Z"/></g>
<g><path style="opacity:1" fill="#34395d" d="M 50.5,105.5 C 51.1174,105.611 51.6174,105.944 52,106.5C 52.4966,108.81 52.6633,111.143 52.5,113.5C 49.4442,111.584 48.7775,108.918 50.5,105.5 Z"/></g>
<g><path style="opacity:1" fill="#7f221f" d="M 138.5,60.5 C 139.5,60.5 140.5,60.5 141.5,60.5C 141.5,77.1667 141.5,93.8333 141.5,110.5C 137.96,110.753 134.627,111.419 131.5,112.5C 124.535,112.932 117.868,114.599 111.5,117.5C 110.707,116.645 111.04,115.811 112.5,115C 120.693,110.951 129.359,108.451 138.5,107.5C 138.5,91.8333 138.5,76.1667 138.5,60.5 Z"/></g>
<g><path style="opacity:1" fill="#304268" d="M 16.5,107.5 C 16.56,106.957 16.8933,106.624 17.5,106.5C 18.5,107.167 19.5,107.833 20.5,108.5C 23.1553,106.98 23.8219,107.48 22.5,110C 22.7591,111.261 23.4258,112.261 24.5,113C 21.6667,113.167 20.1667,114.667 20,117.5C 19.5294,114.406 17.696,112.739 14.5,112.5C 17.2032,111.374 17.8699,109.707 16.5,107.5 Z"/></g>
<g><path style="opacity:1" fill="#233760" d="M 175.5,107.5 C 175.56,106.957 175.893,106.624 176.5,106.5C 178.564,108.978 180.564,108.978 182.5,106.5C 183.137,107.218 183.137,108.218 182.5,109.5C 182.818,110.647 183.484,111.481 184.5,112C 182.152,112.11 180.652,113.277 180,115.5C 178.902,114.033 177.402,113.199 175.5,113C 177.983,111.145 177.983,109.311 175.5,107.5 Z"/></g>
<g><path style="opacity:1" fill="#263155" d="M 148.5,106.5 C 149.629,108.628 149.796,110.961 149,113.5C 148.617,112.944 148.117,112.611 147.5,112.5C 147.325,110.379 147.659,108.379 148.5,106.5 Z"/></g>
<g><path style="opacity:1" fill="#2f3458" d="M 150.5,115.5 C 151.147,113.859 152.147,112.526 153.5,111.5C 160.215,108.441 160.882,109.275 155.5,114C 153.975,115.009 152.308,115.509 150.5,115.5 Z"/></g>
<g><path style="opacity:1" fill="#b1b4bf" d="M 152.5,99.5 C 151.848,100.449 151.514,101.615 151.5,103C 151.608,104.681 152.275,105.848 153.5,106.5C 152.609,107.261 151.942,108.261 151.5,109.5C 151.747,110.713 152.414,111.38 153.5,111.5C 152.147,112.526 151.147,113.859 150.5,115.5C 148.81,115.144 147.81,114.144 147.5,112.5C 148.117,112.611 148.617,112.944 149,113.5C 149.796,110.961 149.629,108.628 148.5,106.5C 149.908,104.103 150.908,101.436 151.5,98.5C 152.107,98.6236 152.44,98.9569 152.5,99.5 Z"/></g>
<g><path style="opacity:1" fill="#2a2f55" d="M 42.5,111.5 C 45.9704,110.409 48.3037,111.742 49.5,115.5C 46.4143,115.401 44.081,114.068 42.5,111.5 Z"/></g>
<g><path style="opacity:1" fill="#262b50" d="M 54.5,111.5 C 57.1438,113.516 57.9772,116.183 57,119.5C 54.7969,117.331 53.9635,114.665 54.5,111.5 Z"/></g>
<g><path style="opacity:1" fill="#333758" d="M 144.5,119.5 C 142.824,118.817 142.157,117.483 142.5,115.5C 142.908,114.357 143.575,113.357 144.5,112.5C 145.575,114.811 145.575,117.144 144.5,119.5 Z"/></g>
<g><path style="opacity:1" fill="#232a50" d="M 55.5,121.5 C 53.8333,121.5 52.1667,121.5 50.5,121.5C 49.0384,120.542 47.7051,119.376 46.5,118C 50.1012,117.699 53.1012,118.866 55.5,121.5 Z"/></g>
<g><path style="opacity:1" fill="#1c2348" d="M 138.5,117.5 C 139.404,118.209 139.737,119.209 139.5,120.5C 138.878,121.627 138.045,122.627 137,123.5C 136.252,121.16 136.752,119.16 138.5,117.5 Z"/></g>
<g><path style="opacity:1" fill="#272d52" d="M 149.5,121.5 C 147.517,121.843 146.183,121.176 145.5,119.5C 148.376,118.197 151.376,117.697 154.5,118C 152.767,119.189 151.1,120.356 149.5,121.5 Z"/></g>
<g><path style="opacity:1" fill="#2b3055" d="M 64.5,121.5 C 64.1959,123.796 63.1959,124.129 61.5,122.5C 60.4196,116.294 61.4196,115.961 64.5,121.5 Z"/></g>
<g><path style="opacity:1" fill="#232a4f" d="M 67.5,120.5 C 70.2208,121.696 71.3874,123.696 71,126.5C 68.9812,125.643 67.4812,124.309 66.5,122.5C 66.3284,121.508 66.6618,120.842 67.5,120.5 Z"/></g>
<g><path style="opacity:1" fill="#2a2f54" d="M 133.5,119.5 C 134.147,122.776 132.647,125.109 129,126.5C 129.037,123.284 130.537,120.951 133.5,119.5 Z"/></g>
<g><path style="opacity:1" fill="#bfc2cb" d="M 142.5,115.5 C 142.157,117.483 142.824,118.817 144.5,119.5C 144.833,119.5 145.167,119.5 145.5,119.5C 146.183,121.176 147.517,121.843 149.5,121.5C 148.048,122.302 146.382,122.802 144.5,123C 145.416,123.278 146.082,123.778 146.5,124.5C 144.167,124.5 141.833,124.5 139.5,124.5C 140.483,123.15 141.816,122.15 143.5,121.5C 142.478,120.646 141.645,119.646 141,118.5C 140.722,119.416 140.222,120.082 139.5,120.5C 139.737,119.209 139.404,118.209 138.5,117.5C 139.287,115.896 140.62,115.229 142.5,115.5 Z"/></g>
<g><path style="opacity:1" fill="#bcbfc9" d="M 67.5,120.5 C 66.6618,120.842 66.3284,121.508 66.5,122.5C 65.1667,123.833 63.8333,125.167 62.5,126.5C 61.4855,125.235 59.9855,124.569 58,124.5C 56.5,124.667 55,124.833 53.5,125C 54.056,125.383 54.3893,125.883 54.5,126.5C 52.9458,125.086 51.6125,123.419 50.5,121.5C 52.1667,121.5 53.8333,121.5 55.5,121.5C 55.9704,122.693 56.9704,123.36 58.5,123.5C 59.7261,123.48 60.7261,123.147 61.5,122.5C 63.1959,124.129 64.1959,123.796 64.5,121.5C 65.1515,120.909 65.8182,120.243 66.5,119.5C 67.1067,119.624 67.44,119.957 67.5,120.5 Z"/></g>
<g><path style="opacity:1" fill="#34395d" d="M 62.5,126.5 C 59.8707,127.714 57.204,127.714 54.5,126.5C 54.3893,125.883 54.056,125.383 53.5,125C 55,124.833 56.5,124.667 58,124.5C 59.9855,124.569 61.4855,125.235 62.5,126.5 Z"/></g>
<g><path style="opacity:1" fill="#262d53" d="M 123.5,122.5 C 124.675,122.281 125.675,122.614 126.5,123.5C 125.086,126.21 123.086,127.21 120.5,126.5C 121.524,125.148 122.524,123.815 123.5,122.5 Z"/></g>
<g><path style="opacity:1" fill="#1d244b" d="M 139.5,124.5 C 141.833,124.5 144.167,124.5 146.5,124.5C 146.938,124.435 147.272,124.601 147.5,125C 144.247,126.656 140.913,126.823 137.5,125.5C 137.957,124.702 138.624,124.369 139.5,124.5 Z"/></g>
<g><path style="opacity:1" fill="#33385d" d="M 73.5,122.5 C 74.9778,122.238 76.3112,122.571 77.5,123.5C 78.2634,124.719 79.2634,125.719 80.5,126.5C 76.9289,127.544 74.5956,126.211 73.5,122.5 Z"/></g>
<g><path style="opacity:1" fill="#8b3e3a" d="M 23.5,125.5 C 25.6718,124.578 27.3385,125.412 28.5,128C 26.5,128.667 24.5,128.667 22.5,128C 23.999,127.162 24.3324,126.329 23.5,125.5 Z"/></g>
<g><path style="opacity:1" fill="#8e423f" d="M 171.5,125.5 C 172.625,124.986 173.791,124.653 175,124.5C 175.465,125.931 176.299,127.097 177.5,128C 175.37,129.564 173.37,129.564 171.5,128C 172.774,127.023 172.774,126.189 171.5,125.5 Z"/></g>
<g><path style="opacity:1" fill="#132149" d="M 88.5,127.5 C 90.7602,128.238 90.9269,129.238 89,130.5C 87.2716,129.648 87.105,128.648 88.5,127.5 Z"/></g>
<g><path style="opacity:1" fill="#31365c" d="M 109.5,129.5 C 110.601,128.402 111.934,128.235 113.5,129C 112.318,130.768 110.985,130.935 109.5,129.5 Z"/></g>
<g><path style="opacity:1" fill="#252c51" d="M 129.5,127.5 C 132.893,127.062 135.893,127.895 138.5,130C 135.833,130.667 133.167,130.667 130.5,130C 129.748,129.329 129.414,128.496 129.5,127.5 Z"/></g>
<g><path style="opacity:1" fill="#2e3456" d="M 64.5,127.5 C 67.0728,127.148 69.4062,127.648 71.5,129C 68.2976,130.483 64.9643,130.817 61.5,130C 62.5707,129.148 63.5707,128.315 64.5,127.5 Z"/></g>
<g><path style="opacity:1" fill="#34395d" d="M 74.5,129.5 C 79.9325,128.813 80.5992,129.979 76.5,133C 69.539,134.288 68.8723,133.122 74.5,129.5 Z"/></g>
<g><path style="opacity:1" fill="#32375c" d="M 99.5,127.5 C 101.176,128.183 101.843,129.517 101.5,131.5C 105.449,131.693 105.449,132.193 101.5,133C 100.809,134.067 100.309,135.234 100,136.5C 99.8333,133.667 98.3333,132.167 95.5,132C 98.4471,131.888 99.7804,130.388 99.5,127.5 Z"/></g>
<g><path style="opacity:1" fill="#33395d" d="M 120.5,130.5 C 123.771,129.09 126.771,129.756 129.5,132.5C 125.958,134.078 122.958,133.412 120.5,130.5 Z"/></g>
<g><path style="opacity:1" fill="#6f6f76" d="M 144.5,131.5 C 149.991,131.469 151.491,133.802 149,138.5C 149,137.167 149,135.833 149,134.5C 148.097,135.701 146.931,136.535 145.5,137C 146.99,139.2 146.657,141.034 144.5,142.5C 143.707,141.645 144.04,140.811 145.5,140C 144.451,139.508 143.451,139.674 142.5,140.5C 139.596,137.552 140.262,135.886 144.5,135.5C 144.5,134.167 144.5,132.833 144.5,131.5 Z"/></g>
<g><path style="opacity:1" fill="#8d91a1" d="M 40.5,129.5 C 43.3229,132.475 45.6563,135.808 47.5,139.5C 44.1848,136.875 41.8514,133.542 40.5,129.5 Z"/></g>
<g><path style="opacity:1" fill="#66656b" d="M 52.5,131.5 C 54.3464,131.222 55.6798,131.889 56.5,133.5C 55.7376,133.911 54.7376,134.077 53.5,134C 54.6734,137.11 54.1734,137.277 52,134.5C 52.2626,135.951 52.0959,137.284 51.5,138.5C 50.4471,137.562 49.7804,136.395 49.5,135C 50.5442,133.826 51.5442,132.659 52.5,131.5 Z"/></g>
<g><path style="opacity:1" fill="#8e92a2" d="M 47.5,139.5 C 51.8471,142.693 55.8471,146.36 59.5,150.5C 54.2381,148.204 50.2381,144.537 47.5,139.5 Z"/></g>
<g><path style="opacity:1" fill="#62636a" d="M 57.5,135.5 C 60.2436,136.072 61.0769,137.738 60,140.5C 58.8902,136.721 57.3902,136.554 55.5,140C 59.5149,142.107 59.1816,142.773 54.5,142C 54.0426,141.586 53.7093,141.086 53.5,140.5C 54.8569,138.814 56.1902,137.148 57.5,135.5 Z"/></g>
<g><path style="opacity:1" fill="#878c9d" d="M 183.5,136.5 C 182.083,141.679 179.417,146.012 175.5,149.5C 177.919,144.991 180.586,140.658 183.5,136.5 Z"/></g>
<g><path style="opacity:1" fill="#777880" d="M 136.5,139.5 C 140.791,139.93 142.458,142.097 141.5,146C 140.5,146.667 139.5,146.667 138.5,146C 138.833,145.667 139.167,145.333 139.5,145C 135.75,144.558 134.75,142.724 136.5,139.5 Z"/></g>
<g><path style="opacity:1" fill="#65656d" d="M 67.5,144.5 C 69.6648,144.116 71.3315,144.783 72.5,146.5C 70.9974,147.052 69.3307,147.052 67.5,146.5C 67.2965,148.39 67.9632,149.89 69.5,151C 68.2161,151.684 67.0495,151.517 66,150.5C 65.2516,148.16 65.7516,146.16 67.5,144.5 Z"/></g>
<g><path style="opacity:1" fill="#79787f" d="M 132.5,142.5 C 135.435,143.931 136.935,146.264 137,149.5C 135.96,146.96 134.126,145.293 131.5,144.5C 131.863,143.817 132.196,143.15 132.5,142.5 Z"/></g>
<g><path style="opacity:1" fill="#8a8fa0" d="M 18.5,139.5 C 23.1596,145.828 27.8262,152.161 32.5,158.5C 26.2967,153.297 21.63,146.964 18.5,139.5 Z"/></g>
<g><path style="opacity:1" fill="#65646b" d="M 62.5,139.5 C 62.5608,141.439 62.5608,143.439 62.5,145.5C 63.916,143.861 65.5826,143.027 67.5,143C 65.9568,144.714 64.2901,146.214 62.5,147.5C 60.7336,147.566 59.7336,146.732 59.5,145C 60.6321,143.235 61.6321,141.402 62.5,139.5 Z"/></g>
<g><path style="opacity:1" fill="#9295a4" d="M 143.5,148.5 C 146.796,144.702 150.296,141.036 154,137.5C 154.667,138.167 154.667,138.833 154,139.5C 150.902,143.107 147.402,146.107 143.5,148.5 Z"/></g>
<g><path style="opacity:1" fill="#63646a" d="M 126.5,145.5 C 129.718,145.651 130.051,146.484 127.5,148C 130.943,148.221 131.276,149.221 128.5,151C 132.389,150.676 132.389,151.509 128.5,153.5C 125.231,151.1 124.565,148.433 126.5,145.5 Z"/></g>
<g><path style="opacity:1" fill="#63636a" d="M 120.5,148.5 C 121.675,148.281 122.675,148.614 123.5,149.5C 121.96,150.532 121.46,151.865 122,153.5C 123.135,153.727 124.302,154.06 125.5,154.5C 120.141,155.816 118.474,153.816 120.5,148.5 Z"/></g>
<g><path style="opacity:1" fill="#59595e" d="M 74.5,147.5 C 75.7479,148.334 76.4146,149.667 76.5,151.5C 76.3333,152.833 76.1667,154.167 76,155.5C 74.5604,153.954 72.7271,153.121 70.5,153C 72.4388,151.568 73.7721,149.735 74.5,147.5 Z"/></g>
<g><path style="opacity:1" fill="#868b9d" d="M 143.5,148.5 C 142.284,150.451 140.618,151.951 138.5,153C 137.241,153.982 135.908,154.315 134.5,154C 137.222,151.642 140.222,149.809 143.5,148.5 Z"/></g>
<g><path style="opacity:1" fill="#5b5c64" d="M 116.5,150.5 C 118.326,152.455 118.826,154.788 118,157.5C 117,156.5 116,155.5 115,154.5C 114.915,156.085 114.749,157.418 114.5,158.5C 112.48,156.401 112.146,154.067 113.5,151.5C 115.738,154.433 116.738,154.099 116.5,150.5 Z"/></g>
<g><path style="opacity:1" fill="#878b9c" d="M 59.5,150.5 C 65.3327,153.249 70.9994,156.249 76.5,159.5C 70.0759,157.79 64.4093,154.79 59.5,150.5 Z"/></g>
<g><path style="opacity:1" fill="#737077" d="M 84.5,151.5 C 85.2389,151.369 85.9056,151.536 86.5,152C 83.8115,160.734 83.1448,160.568 84.5,151.5 Z"/></g>
<g><path style="opacity:1" fill="#6a6970" d="M 87.5,151.5 C 89.0744,151.937 90.2411,152.937 91,154.5C 91.3333,153.833 91.6667,153.167 92,152.5C 92.8141,154.902 92.6474,157.235 91.5,159.5C 90.4164,158.335 89.5831,157.002 89,155.5C 88.7508,156.624 88.2508,157.624 87.5,158.5C 87.1667,158 86.8333,157.5 86.5,157C 87.2335,155.234 87.5668,153.401 87.5,151.5 Z"/></g>
<g><path style="opacity:1" fill="#5a5a60" d="M 95.5,152.5 C 100.629,153.614 100.629,154.281 95.5,154.5C 95.0658,157.166 96.0658,158.333 98.5,158C 97.2888,157.107 97.2888,156.274 98.5,155.5C 100.234,159.596 99.0671,160.929 95,159.5C 94.2967,157.071 94.4634,154.738 95.5,152.5 Z"/></g>
<g><path style="opacity:1" fill="#8c8c94" d="M 78.5,150.5 C 80.1849,149.156 81.8516,149.323 83.5,151C 81.8078,152.401 81.1412,154.234 81.5,156.5C 78.0292,156.101 77.6958,154.601 80.5,152C 79.9558,151.283 79.2891,150.783 78.5,150.5 Z"/></g>
<g><path style="opacity:1" fill="#82828b" d="M 104.5,152.5 C 105.978,152.238 107.311,152.571 108.5,153.5C 108.08,155.326 108.08,157.326 108.5,159.5C 106.712,159.785 105.045,159.452 103.5,158.5C 104.025,157.808 104.692,157.308 105.5,157C 103.218,155.916 102.884,154.416 104.5,152.5 Z"/></g>
<g><path style="opacity:1" fill="#465778" d="M 156.5,152.5 C 155.766,153.708 155.433,155.041 155.5,156.5C 162.037,157.925 162.037,158.425 155.5,158C 152.638,155.442 152.971,153.609 156.5,152.5 Z"/></g>
<g><path style="opacity:1" fill="#65636c" d="M 109.5,152.5 C 110.117,152.611 110.617,152.944 111,153.5C 111.667,155.5 111.667,157.5 111,159.5C 110.023,157.26 109.523,154.927 109.5,152.5 Z"/></g>
<g><path style="opacity:1" fill="#7f8396" d="M 117.5,161.5 C 121.643,159.428 125.976,157.928 130.5,157C 126.556,159.639 122.222,161.139 117.5,161.5 Z"/></g>
<g><path style="opacity:1" fill="#424d70" d="M 65.5,161.5 C 64.0638,159.681 62.3971,159.348 60.5,160.5C 61.7701,161.288 62.7701,162.288 63.5,163.5C 61.8828,162.962 60.2161,162.629 58.5,162.5C 58.1575,160.775 57.1575,160.275 55.5,161C 54.1196,162.925 52.6196,164.759 51,166.5C 51.5654,164.035 52.732,161.702 54.5,159.5C 54.1924,158.692 53.6924,158.025 53,157.5C 50.6255,159.539 48.6255,161.872 47,164.5C 44.8415,161.494 43.3415,158.161 42.5,154.5C 38.0405,155.877 36.2072,154.211 37,149.5C 37.1183,151.573 38.1183,152.907 40,153.5C 41.098,152.616 41.598,151.616 41.5,150.5C 43.5699,151.903 45.2365,153.57 46.5,155.5C 47.3764,155.631 48.0431,155.298 48.5,154.5C 46.0472,151.759 43.7139,148.925 41.5,146C 41.8333,145.833 42.1667,145.667 42.5,145.5C 45.9888,149.155 49.6554,152.655 53.5,156C 54.3317,156.688 54.9984,156.521 55.5,155.5C 54.4937,154.604 54.4937,153.938 55.5,153.5C 56.2304,155.341 56.8971,157.175 57.5,159C 59.1068,159.115 60.6068,158.615 62,157.5C 64.0736,158.072 65.2402,159.405 65.5,161.5 Z"/></g>
<g><path style="opacity:1" fill="#e6e7eb" d="M 46.5,155.5 C 47.9097,156.828 49.0764,156.495 50,154.5C 51.8615,157.2 51.0282,158.867 47.5,159.5C 45.7336,159.566 44.7336,158.732 44.5,157C 44.8361,155.97 45.5028,155.47 46.5,155.5 Z"/></g>
<g><path style="opacity:1" fill="#dcdee3" d="M 65.5,161.5 C 65.5,162.833 64.8333,163.5 63.5,163.5C 62.7701,162.288 61.7701,161.288 60.5,160.5C 62.3971,159.348 64.0638,159.681 65.5,161.5 Z"/></g>
<g><path style="opacity:1" fill="#7a8097" d="M 151.5,156.5 C 151.374,158.279 151.708,160.279 152.5,162.5C 151.167,162.5 149.833,162.5 148.5,162.5C 148.455,159.923 149.455,157.923 151.5,156.5 Z"/></g>
<g><path style="opacity:1" fill="#3c496d" d="M 65.5,161.5 C 66.1255,163.626 67.4589,165.293 69.5,166.5C 68.6063,166.517 67.6063,166.851 66.5,167.5C 65.7888,165.97 64.7888,164.637 63.5,163.5C 64.8333,163.5 65.5,162.833 65.5,161.5 Z"/></g>
<g><path style="opacity:1" fill="#9c9fad" d="M 76.5,159.5 C 89.9965,162.632 103.663,163.299 117.5,161.5C 107.116,164.814 96.4492,165.314 85.5,163C 82.2823,162.1 79.2823,160.933 76.5,159.5 Z"/></g>
<g><path style="opacity:1" fill="#384469" d="M 156.5,152.5 C 156.483,150.972 155.816,150.472 154.5,151C 151.167,154 147.833,157 144.5,160C 146.167,162.333 147.833,164.667 149.5,167C 148.833,167.667 148.167,167.667 147.5,167C 146,164.833 144.5,162.667 143,160.5C 141.635,161.593 141.301,162.926 142,164.5C 143.292,166.249 144.458,168.082 145.5,170C 144.212,170.239 143.212,169.739 142.5,168.5C 141.408,165.976 140.074,163.643 138.5,161.5C 146.678,157.163 153.511,151.163 159,143.5C 160.253,146.918 162.419,149.585 165.5,151.5C 165.167,151.833 164.833,152.167 164.5,152.5C 162.5,150.833 160.5,149.167 158.5,147.5C 157.692,147.808 157.025,148.308 156.5,149C 158.5,151 160.5,153 162.5,155C 160.463,154.517 158.463,153.684 156.5,152.5 Z"/></g>
<g><path style="opacity:1" fill="#8d93a4" d="M 36.5,162.5 C 40.1274,164.794 43.4607,167.46 46.5,170.5C 42.2512,168.912 38.9179,166.245 36.5,162.5 Z"/></g>
<g><path style="opacity:1" fill="#bfc3cc" d="M 138.5,161.5 C 140.074,163.643 141.408,165.976 142.5,168.5C 141.691,170.013 141.524,171.68 142,173.5C 140.052,172.891 138.218,172.224 136.5,171.5C 140.363,170.743 141.196,168.743 139,165.5C 136.777,168.047 134.944,167.713 133.5,164.5C 135.294,163.767 136.961,162.767 138.5,161.5 Z"/></g>
<g><path style="opacity:1" fill="#3a466a" d="M 58.5,162.5 C 57.8717,165.09 56.705,167.423 55,169.5C 54.991,166.65 56.1577,164.317 58.5,162.5 Z"/></g>
<g><path style="opacity:1" fill="#57607d" d="M 66.5,167.5 C 65.9553,169.593 65.122,171.593 64,173.5C 63.8047,171.793 63.8047,170.126 64,168.5C 62.9887,167.663 61.8221,167.33 60.5,167.5C 60.6534,173.324 59.9867,173.657 58.5,168.5C 58.6082,167.558 58.9415,166.725 59.5,166C 62.0953,165.4 64.4287,165.9 66.5,167.5 Z"/></g>
<g><path style="opacity:1" fill="#8a8ea0" d="M 175.5,149.5 C 170.5,157.833 163.833,164.5 155.5,169.5C 162.5,163.167 169.167,156.5 175.5,149.5 Z"/></g>
<g><path style="opacity:1" fill="#0e164a" d="M 89.5,168.5 C 95.8532,168.453 96.0199,169.119 90,170.5C 89.5357,169.906 89.369,169.239 89.5,168.5 Z"/></g>
<g><path style="opacity:1" fill="#454f72" d="M 133.5,164.5 C 134.944,167.713 136.777,168.047 139,165.5C 141.196,168.743 140.363,170.743 136.5,171.5C 137.091,170.849 137.757,170.182 138.5,169.5C 136.328,168.795 134.328,167.795 132.5,166.5C 130.896,168.446 129.563,170.612 128.5,173C 128.833,173.5 129.167,174 129.5,174.5C 130.167,173.5 130.833,172.5 131.5,171.5C 133.929,172.855 135.262,174.522 135.5,176.5C 132.891,175.77 130.224,175.27 127.5,175C 126.85,172.645 126.85,170.478 127.5,168.5C 126.264,169.246 124.93,169.579 123.5,169.5C 124.345,172.826 124.845,176.16 125,179.5C 123.573,176.274 122.073,173.108 120.5,170C 120.799,168.68 120.966,167.18 121,165.5C 122.388,164.446 123.888,164.28 125.5,165C 122.733,165.669 122.233,166.836 124,168.5C 127.308,167.239 130.475,165.906 133.5,164.5 Z"/></g>
<g><path style="opacity:1" fill="#61647f" d="M 69.5,169.5 C 71.337,169.639 71.6704,170.306 70.5,171.5C 69.7025,171.043 69.3691,170.376 69.5,169.5 Z"/></g>
<g><path style="opacity:1" fill="#2c3b64" d="M 84.5,171.5 C 83.1667,171.5 81.8333,171.5 80.5,171.5C 80.5,173.167 80.5,174.833 80.5,176.5C 79.7839,174.444 79.1172,172.277 78.5,170C 80.6843,169.879 82.6843,170.379 84.5,171.5 Z"/></g>
<g><path style="opacity:1" fill="#2a3b61" d="M 84.5,171.5 C 89.9934,172.157 95.3268,172.49 100.5,172.5C 98.7056,173.233 97.0389,174.233 95.5,175.5C 94.0821,173.692 92.0821,173.025 89.5,173.5C 89.8134,176.247 89.48,178.914 88.5,181.5C 88.1244,178.627 88.1244,175.627 88.5,172.5C 86.901,172.768 85.5676,172.434 84.5,171.5 Z"/></g>
<g><path style="opacity:1" fill="#4f5b7a" d="M 111.5,166.5 C 113.842,166.775 113.842,167.608 111.5,169C 112.759,169.923 114.092,170.757 115.5,171.5C 114.201,174.699 114.201,177.865 115.5,181C 115.167,181.167 114.833,181.333 114.5,181.5C 113.5,178.833 112.5,176.167 111.5,173.5C 110.679,176.447 110.179,179.447 110,182.5C 109.144,179.084 107.977,175.751 106.5,172.5C 112.381,171.841 112.714,170.674 107.5,169C 109.32,168.8 110.653,167.966 111.5,166.5 Z"/></g>
<g><path style="opacity:1" fill="#8d92a3" d="M 46.5,170.5 C 52.5078,173.837 58.5078,177.17 64.5,180.5C 57.5674,178.704 51.5674,175.37 46.5,170.5 Z"/></g>
<g><path style="opacity:1" fill="#515f7e" d="M 80.5,176.5 C 82.9115,176.863 84.4115,175.863 85,173.5C 85.2183,176.245 84.7183,178.912 83.5,181.5C 82.8333,180.5 82.1667,179.5 81.5,178.5C 76.5864,179.869 76.253,179.203 80.5,176.5 Z"/></g>
<g><path style="opacity:1" fill="#707991" d="M 100.5,172.5 C 101.873,172.343 103.207,172.51 104.5,173C 101.936,174.736 102.269,175.902 105.5,176.5C 105.5,177.167 105.167,177.5 104.5,177.5C 102.656,176.84 100.99,175.84 99.5,174.5C 97.6663,175.754 95.6663,176.421 93.5,176.5C 93.4326,177.959 93.7659,179.292 94.5,180.5C 94.5,180.833 94.5,181.167 94.5,181.5C 90.2563,178.583 90.5896,176.583 95.5,175.5C 97.0389,174.233 98.7056,173.233 100.5,172.5 Z"/></g>
<g><path style="opacity:1" fill="#061847" d="M 94.5,181.5 C 94.5,181.167 94.5,180.833 94.5,180.5C 95.7498,180.423 96.5831,179.756 97,178.5C 97.4828,179.448 97.6495,180.448 97.5,181.5C 96.5,181.5 95.5,181.5 94.5,181.5 Z"/></g>
<g><path style="opacity:1" fill="#2b3961" d="M 104.5,177.5 C 105.167,177.5 105.5,177.167 105.5,176.5C 106.504,177.507 106.671,179.84 106,183.5C 104.59,182.213 103.09,181.046 101.5,180C 103.119,179.764 104.119,178.931 104.5,177.5 Z"/></g>
<g><path style="opacity:1" fill="#9a9fae" d="M 155.5,169.5 C 152.634,172.521 149.3,175.021 145.5,177C 125.631,187.323 104.631,190.656 82.5,187C 76.0082,185.894 70.0082,183.728 64.5,180.5C 96.7129,191.57 127.046,187.903 155.5,169.5 Z"/></g>
</svg>
